
#include "pitches.h"
#define NO_SOUND 0 // make the rests in music


//array of notes
int melody[] = {
  NOTE_G4,NOTE_G4,NO_SOUND,NOTE_G4,NOTE_G4,NO_SOUND,NOTE_G4,NOTE_G4,NOTE_G4,NOTE_G4,NOTE_G4,
   NOTE_B3,NOTE_G3,NOTE_C4,NOTE_G3,NOTE_CS4,NOTE_G3,NOTE_C4,NOTE_G3,NOTE_B3,NOTE_G3,NOTE_C4,NOTE_G3,NOTE_CS4,NOTE_G3,NOTE_C4,NOTE_G3,
   NOTE_E4,NOTE_F4,NOTE_F4,NOTE_F4,NOTE_F4,NOTE_E4,NOTE_E4,NOTE_E4,
   NOTE_E4,NOTE_G4,NOTE_G4,NOTE_G4,NOTE_G4,NOTE_E4,NOTE_E4,NOTE_E4,
   //Introduction
  NOTE_E4,NOTE_F4,NOTE_F4,NOTE_F4,NOTE_F4,NOTE_E4,NOTE_E4,NOTE_E4,
  NOTE_E4,NOTE_G4,NOTE_G4,NOTE_G4,NOTE_G4,NOTE_E4,NOTE_E4,NOTE_E4,
  NOTE_E4,NOTE_F4,NOTE_F4,NOTE_F4,NOTE_F4,NOTE_E4,NOTE_E4,NOTE_E4,
  NOTE_E4,NOTE_G4,NOTE_G4,NOTE_G4,NOTE_G4,NOTE_E4,NOTE_E4,NOTE_E4,
  NOTE_DS5,NOTE_D5,NOTE_B4,NOTE_A4,NOTE_B4,
  NOTE_E4,NOTE_G4,NOTE_DS5,NOTE_D5,NOTE_G4,NOTE_B4,
  NOTE_B4,NOTE_FS5,NOTE_F5,NOTE_B4,NOTE_D5,NOTE_AS5,
  NOTE_A5,NOTE_F5,NOTE_A5,NOTE_DS6,NOTE_D6,NO_SOUND
};

// note duration: 1 = whole note, 2 = half note, 4 = quarter note, 8 = eighth note, etc.
int noteDurations[] = {
  8,8,2,8,8,2,16,8,16,8,8,
   2,4,2,4,2,4,2,4,2,4,2,4,2,4,2,4,
   8,16,16,8,4,8,8,8,
   8,16,16,8,4,8,8,8,
  8,16,16,8,4,8,8,8,
  8,16,16,8,4,8,8,8,
  8,16,16,8,4,8,8,8,
  8,16,16,8,4,8,8,8,
  8,2,8,8,1,
  8,4,8,4,8,8,
  8,8,4,8,4,8,
  4,8,4,8,3
};

int pace = 1450; // change pace of music("speedy")
void setup() {
  unsigned long time = 0;
  boolean done = false;
  int Note = 0;
  int duration = 0;
  while (Note < sizeof(melody)){
    if (millis() - time > duration*1.2){
      time = millis();
      duration = pace/noteDurations[Note];
      tone(9, melody[Note], duration);
      Note++;
  }
}
pinMode(9, OUTPUT);
pinMode(10, OUTPUT);
digitalWrite(9, LOW);
digitalWrite(10, LOW);
}

void loop() {
  //to repeat song, push reset button.
}
//End of Sketch
